# xmcd CD database file
#
# Track frame offsets:
#	150
#	1604
#	9816
#	24927
#	36809
#	52069
#	67234
#	80769
#	98071
#	110989
#	131359
#	151576
#	168552
#	180448
#
# Disc length: 2540 seconds
#
# Revision: 0
# Processed by: cddbd v1.5.1PL0 Copyright (c) Steve Scherf et al.
# Submitted via: CDex 1.51
#
DISCID=a309ea0e
DTITLE=Johnny Martin - No Picnic
DYEAR=2002
DGENRE=Jazz
TTITLE0=Intro
TTITLE1=Hey Now, Let's Live
TTITLE2=All Night Long
TTITLE3=Bim Bam
TTITLE4=The Best Is Yet to Come
TTITLE5=Saturday Night
TTITLE6=Nice n' Easy
TTITLE7=Jump Jive 'n Wail
TTITLE8=French Poodle
TTITLE9=Are You Hep to the Jive?
TTITLE10=That Old Black Magic
TTITLE11=Hello Dolly
TTITLE12=Where or When
TTITLE13=Perdido
EXTD=YEAR: 2002
EXTT0=
EXTT1=
EXTT2=
EXTT3=
EXTT4=
EXTT5=
EXTT6=
EXTT7=
EXTT8=
EXTT9=
EXTT10=
EXTT11=
EXTT12=
EXTT13=
PLAYORDER=
